<svg xmlns="http://www.w3.org/2000/svg" viewBox="0 0 64 32">
    <defs>
        <style>
            .a{fill:#fff;}
        </style>
    </defs>
    <g transform="translate(-421.982 -17.528)">
        <g transform="translate(421.982 17.528)">
            <g transform="translate(0)">
                <path d="M104.1,70.442,105.528,60.3h-3.543L100.6,70.442Z" class="a" transform="translate(-59.62 -50.158)"/>
                <path d="M7.4,66.9H4.552a1.01,1.01,0,0,1-1.018-1.181l.937-6.6h3.5l.489-3.5h-3.5L5.407,52.4H1.9L.031,65.759a3.978,3.978,0,0,0,4.032,4.684H9.154A4.97,4.97,0,0,1,7.4,66.9Z" class="a" transform="translate(0.017 -45.476)"/>
                <path d="M97.93,72.845a4.528,4.528,0,0,1-2.24-1.222H86.852a1.01,1.01,0,0,1-1.018-1.181L87.259,60.3h-3.5L82.331,70.442a3.978,3.978,0,0,0,4.032,4.684h13.726C100.17,74.311,99.6,73.211,97.93,72.845Z" class="a" transform="translate(-48.763 -50.158)"/>
                <path d="M112.923,68.024a1.941,1.941,0,0,1-1.588-2.281,2.7,2.7,0,0,1,2.607-2.281,1.862,1.862,0,0,1,1.874,1.344l3.421-1.426A4.85,4.85,0,0,0,114.43,60a6.874,6.874,0,0,0-6.6,5.784,4.933,4.933,0,0,0,3.951,5.7,3,3,0,0,1,2.566,3.462,4.211,4.211,0,0,1-3.991,3.5,2.923,2.923,0,0,1-2.973-2.4H103.8a5.9,5.9,0,0,0,6.069,5.906,8.315,8.315,0,0,0,7.983-7.005A5.963,5.963,0,0,0,112.923,68.024Z" class="a" transform="translate(-61.516 -49.981)"/>
                <path d="M28.155,75.125a4.881,4.881,0,0,1-1.751-3.5H20.049a1.01,1.01,0,0,1-1.018-1.181l.774-5.458A1.4,1.4,0,0,1,21.149,63.8h2.729l-.937,6.639h3.5L27.87,60.3H21.638A5.567,5.567,0,0,0,16.3,64.984l-.774,5.458a3.978,3.978,0,0,0,4.032,4.684H22.29a4.246,4.246,0,0,1-3.421,3.462,3,3,0,0,1-3.543-2.281H11.7a5.943,5.943,0,0,0,6.761,5.824A8.459,8.459,0,0,0,25.67,75.7a2.75,2.75,0,0,0,.081-.57h2.4Z" class="a" transform="translate(-6.928 -50.158)"/>
                <path d="M62.709,57.416H56.152a1.01,1.01,0,0,1-1.018-1.181L56.07,49.6H58.8a1.01,1.01,0,0,1,1.018,1.181l-.774,5.458h3.5l.774-5.458a3.978,3.978,0,0,0-4.032-4.684H56.559L57.9,36.4H54.4l-2.77,19.794a3.978,3.978,0,0,0,4.032,4.684H64.42A4.678,4.678,0,0,1,62.709,57.416Z" class="a" transform="translate(-30.567 -35.993)"/>
                <path d="M67.031,38.9l.489-3.5H10.5a5.567,5.567,0,0,0-5.336,4.684L5,41.143H8.5l.163-1.059A1.4,1.4,0,0,1,10.01,38.9Z" class="a" transform="translate(-2.957 -35.4)"/>
                <path d="M139.98,46.9l-2.2,15.6a1.4,1.4,0,0,1-1.344,1.181h-1.874a20.294,20.294,0,0,1-.163,3.5h1.548a5.567,5.567,0,0,0,5.336-4.684l2.2-15.6Z" class="a" transform="translate(-79.653 -42.216)"/>
            </g>
        </g>
    </g>
</svg>
